<?xml version="1.0" standalone="no"?>
<!DOCTYPE svg PUBLIC "-//W3C//DTD SVG 20010904//EN"
 "http://www.w3.org/TR/2001/REC-SVG-20010904/DTD/svg10.dtd">
<svg version="1.0" xmlns="http://www.w3.org/2000/svg"
 width="700.000000pt" height="700.000000pt" viewBox="0 0 700.000000 700.000000"
 preserveAspectRatio="xMidYMid meet">
<metadata>
Created by potrace 1.14, written by Peter Selinger 2001-2017
</metadata>
<g transform="translate(0.000000,700.000000) scale(0.100000,-0.100000)"
fill="#000000" stroke="none">
<path d="M1220 5190 c-649 -59 -1084 -645 -999 -1345 63 -513 389 -888 863
-991 111 -25 322 -29 440 -10 477 79 833 444 921 944 31 174 17 445 -32 612
-43 147 -129 307 -231 427 -122 144 -338 277 -532 328 -78 20 -296 49 -335 44
-5 -1 -48 -5 -95 -9z m215 -186 c319 -77 570 -393 652 -819 23 -124 23 -388
-1 -508 -73 -377 -280 -614 -578 -665 -157 -26 -337 8 -476 90 -72 42 -196
164 -252 247 -98 146 -166 332 -196 535 -22 146 -14 401 15 528 66 288 252
513 483 587 95 31 237 33 353 5z"/>
<path d="M5925 5190 c-488 -41 -872 -360 -984 -816 -90 -366 -26 -795 163
-1081 208 -316 534 -476 940 -460 271 10 452 69 683 223 62 41 113 77 113 80
0 12 -40 82 -53 93 -12 9 -27 5 -78 -23 -415 -227 -841 -213 -1114 35 -191
176 -302 434 -324 763 -32 453 129 820 423 965 189 92 462 106 623 31 155 -72
228 -206 251 -465 l7 -80 45 3 c25 1 66 7 91 13 l46 10 7 171 c6 158 20 311
32 349 3 13 -15 25 -78 52 -262 111 -535 159 -793 137z"/>
<path d="M2770 5129 c0 -84 9 -109 39 -109 15 0 50 -7 78 -15 58 -17 95 -54
115 -113 16 -48 24 -1602 9 -1700 -19 -122 -58 -164 -169 -183 -68 -12 -72
-18 -72 -104 l0 -50 415 0 416 0 -6 55 c-10 88 -10 87 -76 99 -167 29 -181 78
-177 626 l3 330 107 -107 c198 -200 476 -542 678 -838 55 -80 105 -153 112
-163 12 -16 24 -17 178 -7 91 5 213 10 271 10 l107 0 6 31 c3 17 6 51 6 75 0
42 -1 43 -37 49 -148 22 -215 51 -296 125 -29 27 -129 146 -222 265 -231 296
-410 510 -529 633 l-100 103 50 52 c28 29 159 167 291 307 412 437 484 495
643 516 60 8 70 23 70 107 l0 52 -350 0 -350 0 1 -50 c2 -77 11 -98 44 -105
77 -16 98 -54 66 -123 -29 -65 -48 -86 -408 -464 -332 -349 -338 -355 -341
-322 -2 19 -2 192 1 384 5 395 10 434 70 479 34 26 95 46 139 46 29 0 35 16
41 108 l2 42 -413 3 -412 2 0 -46z"/>
<path d="M527 2225 c-103 -36 -148 -155 -97 -254 25 -50 46 -66 170 -131 111
-58 140 -89 140 -148 0 -24 -9 -42 -29 -63 -26 -26 -36 -29 -94 -29 -51 0 -70
5 -92 22 -31 24 -55 74 -55 113 0 23 -4 26 -27 23 -32 -4 -40 -26 -42 -106
l-1 -53 58 -27 c49 -23 70 -27 147 -27 79 0 95 3 135 27 61 35 91 91 91 165 0
85 -30 122 -161 193 -58 32 -117 69 -131 83 -55 54 -41 145 26 167 44 15 96 6
119 -19 10 -11 23 -39 30 -63 12 -38 17 -43 42 -43 27 0 29 3 32 42 2 22 -1
56 -6 74 -7 30 -15 36 -63 51 -66 20 -141 22 -192 3z"/>
<path d="M1155 2227 c-96 -32 -162 -90 -204 -177 -23 -48 -26 -67 -26 -160 0
-93 3 -112 26 -161 33 -69 88 -127 154 -159 42 -21 65 -25 140 -25 78 0 97 4
146 28 67 32 132 100 162 165 32 72 36 209 7 285 -33 87 -76 137 -152 176 -54
27 -81 35 -140 37 -43 2 -89 -2 -113 -9z m164 -66 c90 -46 142 -142 149 -272
5 -103 -14 -172 -61 -225 -41 -48 -77 -64 -140 -64 -147 0 -245 141 -235 339
6 115 44 186 123 229 33 18 122 14 164 -7z"/>
<path d="M3997 2226 c-77 -28 -117 -86 -117 -166 0 -100 35 -142 179 -215 47
-24 96 -53 109 -65 50 -47 52 -122 5 -160 -30 -23 -124 -28 -168 -8 -30 13
-65 74 -65 112 0 30 -13 40 -46 32 -23 -6 -24 -10 -24 -81 l0 -75 53 -26 c100
-52 237 -43 312 19 70 57 87 161 39 233 -31 46 -27 43 -158 115 -120 66 -151
101 -142 164 8 66 81 102 147 74 32 -13 68 -73 69 -112 0 -15 7 -18 33 -15 23
2 32 8 31 21 0 9 -1 41 -2 71 -2 53 -2 54 -44 71 -58 24 -163 29 -211 11z"/>
<path d="M5153 2232 c-6 -4 -64 -140 -127 -302 -94 -240 -121 -300 -146 -321
-16 -14 -30 -33 -30 -42 0 -15 12 -17 90 -17 84 0 90 1 90 20 0 13 -10 24 -25
30 -30 12 -33 44 -8 111 19 55 30 59 184 59 l95 0 27 -65 c33 -81 33 -93 2
-105 -15 -6 -25 -17 -25 -30 0 -19 6 -20 115 -20 104 0 115 2 115 18 0 10 -13
28 -28 39 -22 17 -58 89 -162 327 -73 168 -138 306 -144 306 -6 0 -16 -4 -23
-8z m42 -273 c28 -67 52 -125 53 -130 2 -5 -44 -9 -103 -9 -59 0 -105 4 -103
8 2 5 23 63 48 130 25 67 47 122 50 122 3 0 28 -55 55 -121z"/>
<path d="M1650 2218 c0 -20 13 -35 36 -42 30 -9 34 -39 34 -265 0 -108 5 -213
11 -234 16 -57 63 -104 122 -122 133 -40 260 -3 307 89 24 48 25 59 28 255 3
252 6 269 38 281 14 6 24 17 24 30 0 19 -6 20 -99 20 l-98 0 5 -25 c2 -15 11
-25 22 -25 41 0 45 -22 45 -261 0 -214 -1 -229 -21 -256 -63 -86 -207 -82
-259 7 -18 32 -20 55 -23 258 -4 235 -1 248 41 254 14 2 23 11 25 26 3 22 2
22 -117 22 -90 0 -121 -3 -121 -12z"/>
<path d="M2326 2198 c-3 -18 -7 -55 -8 -83 -3 -47 -1 -50 22 -53 23 -3 27 2
38 42 14 53 48 76 112 76 l40 0 0 -279 c0 -297 0 -296 -50 -303 -17 -2 -26
-10 -28 -25 -3 -23 -3 -23 132 -23 76 0 136 4 136 9 0 24 -14 41 -34 41 -45 0
-46 9 -46 303 l0 280 50 -5 c61 -6 88 -29 97 -80 5 -35 9 -39 32 -36 31 4 35
19 26 104 l-7 64 -253 0 -254 0 -5 -32z"/>
<path d="M2902 2208 c2 -13 11 -24 23 -26 45 -9 45 -11 45 -292 0 -281 0 -283
-45 -292 -12 -2 -21 -13 -23 -26 -3 -22 -2 -22 123 -22 125 0 126 0 123 22 -2
13 -11 24 -23 26 -41 8 -45 20 -45 148 l0 124 145 0 145 0 0 -124 c0 -128 -4
-140 -45 -148 -12 -2 -21 -13 -23 -26 -3 -22 -2 -22 123 -22 125 0 126 0 123
23 -2 14 -11 23 -25 25 -46 7 -48 19 -48 292 0 273 2 285 48 292 14 2 23 11
25 26 3 22 2 22 -123 22 -125 0 -126 0 -123 -22 2 -14 11 -24 23 -26 38 -7 45
-30 45 -149 l0 -113 -145 0 -145 0 0 119 c0 123 4 135 45 143 12 2 21 13 23
26 3 22 2 22 -123 22 -125 0 -126 0 -123 -22z"/>
<path d="M4346 2158 c-4 -40 -8 -77 -9 -83 -1 -5 10 -11 25 -13 24 -3 28 1 37
36 15 55 41 75 106 80 l55 4 0 -269 c0 -291 -4 -313 -54 -313 -22 0 -36 -16
-36 -41 0 -5 60 -9 136 -9 135 0 135 0 132 23 -2 15 -11 23 -28 25 -48 6 -50
17 -50 310 l0 275 50 -5 c59 -6 86 -27 102 -80 9 -30 16 -38 35 -38 22 0 23 3
23 85 l0 85 -259 0 -259 0 -6 -72z"/>
<path d="M5580 2221 c0 -22 14 -41 30 -41 42 0 45 -20 45 -290 0 -270 -3 -290
-45 -290 -16 0 -30 -19 -30 -41 0 -5 56 -9 126 -9 124 0 125 0 122 22 -2 13
-11 24 -23 26 -41 8 -45 20 -45 146 l1 121 65 -70 c36 -38 94 -111 130 -162
l65 -92 72 5 c91 7 97 9 97 34 0 13 -7 20 -20 20 -42 0 -82 33 -157 128 -43
53 -99 120 -125 148 l-47 50 112 118 c83 87 122 121 152 131 27 9 41 20 43 34
3 20 -1 21 -102 21 l-106 0 0 -25 c0 -16 6 -25 15 -25 37 0 10 -46 -87 -148
l-103 -108 -3 108 c-3 116 5 145 40 150 15 2 24 11 26 26 3 22 2 22 -122 22
-70 0 -126 -4 -126 -9z"/>
<path d="M6260 2210 c0 -13 10 -24 27 -31 15 -6 31 -16 35 -22 4 -7 8 -127 8
-268 0 -268 -2 -283 -45 -291 -12 -2 -21 -12 -23 -26 l-3 -22 239 0 240 0 13
68 c17 86 18 82 -8 99 -20 14 -22 12 -41 -31 -28 -62 -66 -80 -164 -81 -42 0
-79 3 -83 7 -14 14 -25 86 -25 172 l0 89 68 -6 c70 -7 102 -28 102 -67 0 -19
36 -37 48 -25 3 3 6 55 7 115 l0 110 -27 0 c-21 0 -28 -5 -28 -20 0 -40 -35
-60 -105 -60 l-65 0 0 130 0 130 74 0 c40 0 87 -5 104 -11 32 -11 72 -63 72
-93 0 -13 7 -17 28 -14 15 2 26 8 25 15 -2 7 -6 44 -9 83 l-7 70 -228 0 c-223
0 -229 -1 -229 -20z"/>
</g>
</svg>
